<?xml version="1.0" encoding="iso-8859-1"?>
<!-- Generator: Adobe Illustrator 21.0.0, SVG Export Plug-In . SVG Version: 6.00 Build 0)  -->
<svg version="1.1" id="Capa_1" xmlns="http://www.w3.org/2000/svg" xmlns:xlink="http://www.w3.org/1999/xlink" x="0px" y="0px"
	 viewBox="0 0 512 512" style="enable-background:new 0 0 512 512;" xml:space="preserve">
<g id="XMLID_1252_">
	<g id="XMLID_1253_">
		<g id="XMLID_1254_">
			<g id="XMLID_1255_">
				<path style="fill:#627687;" d="M278.617,397.505h112.748c18.904,0,34.728-14.332,36.593-33.143l13.508-136.201
					c6.244-62.959-43.208-117.558-106.476-117.558h0c-63.268,0-112.72,54.6-106.476,117.558l13.508,136.201
					C243.89,383.173,259.714,397.505,278.617,397.505z"/>
				<path id="XMLID_1256_" style="fill:#3A82D0;" d="M441.121,447.647V504.5h-212.26v-56.853c0-30.145,16.444-56.432,40.853-70.39
					c11.838-6.784,25.556-10.658,40.179-10.658h50.188c14.923,0,28.906,4.04,40.919,11.082
					C425.001,391.747,441.121,417.802,441.121,447.647z"/>
				<path id="XMLID_1257_" style="fill:#0D73CE;" d="M441.121,447.647V504.5h-17.167v-56.853c0-29.845-16.12-55.9-40.121-69.966
					c-12.013-7.042-25.996-11.082-40.919-11.082h17.167c14.923,0,28.906,4.04,40.919,11.082
					C425.001,391.747,441.121,417.802,441.121,447.647z"/>
				<path id="XMLID_1258_" style="fill:#EBEEF2;" d="M406.03,451.871V504.5H263.952v-52.629c0,0,39.123-11.922,71.039,11.656
					C366.915,439.949,406.03,451.871,406.03,451.871z"/>
				<path style="fill:#F8C298;" d="M334.991,397.505L334.991,397.505c-10.332,0-18.708-8.376-18.708-18.708v-52.481H353.7v52.481
					C353.7,389.129,345.324,397.505,334.991,397.505z"/>
				<g id="XMLID_1259_">
					<g id="XMLID_1260_">
						<circle style="fill:#F8C298;" cx="419.819" cy="263.099" r="25.189"/>
					</g>
					<g id="XMLID_1261_">
						<circle style="fill:#F8C298;" cx="250.163" cy="263.099" r="25.189"/>
					</g>
				</g>
				<path id="XMLID_1262_" style="fill:#FFD6C0;" d="M255.625,191.908l12.002,96.083c4.244,33.976,33.125,59.473,67.364,59.473h0
					c34.24,0,63.12-25.498,67.364-59.473l12.002-96.083H255.625z"/>
				<path id="XMLID_1263_" style="fill:#627687;" d="M243.372,182.663v27.716c0,0,51.949,18.488,89.366-15.771
					c0,0,14.367,45.677,76.186,55.093c4.722,0.719,9.123-2.576,9.752-7.311l7.935-59.727H243.372z"/>
				<g id="XMLID_1264_">
					<circle style="fill:#ED7A98;" cx="378.779" cy="287.116" r="6.808"/>
					<circle style="fill:#ED7A98;" cx="291.204" cy="287.116" r="6.808"/>
				</g>
			</g>
			<g id="XMLID_1265_">
				<g id="XMLID_1266_">
					<path style="fill:#5F9EEB;" d="M272.267,504.5H22.715v-90.992c0-32.678,26.49-59.168,59.168-59.168h131.216
						c32.678,0,59.168,26.49,59.168,59.168V504.5z"/>
					<rect x="104.885" y="354.338" style="fill:#EBEEF2;" width="88.048" height="150.162"/>
					<path style="fill:#3A82D0;" d="M272.264,413.509v90.99h-20.161v-90.99c0-32.673-26.498-59.17-59.17-59.17h20.172
						C245.777,354.338,272.264,380.836,272.264,413.509z"/>
					<g id="XMLID_1267_">
						<path style="fill:#E39F6E;" d="M148.909,387.655L148.909,387.655c-11.138,0-20.168-9.029-20.168-20.168v-56.574h40.336v56.574
							C169.077,378.625,160.047,387.655,148.909,387.655z"/>
						<path style="fill:#455E6D;" d="M42.213,232.019h213.392l5.628-27.453C275.809,133.465,221.49,66.88,148.909,66.88h0
							c-72.581,0-126.9,66.585-112.324,137.686L42.213,232.019z"/>
						<g id="XMLID_1268_">
							<g id="XMLID_1269_">
								<circle style="fill:#E39F6E;" cx="240.354" cy="242.765" r="27.154"/>
							</g>
							<g id="XMLID_1270_">
								<circle style="fill:#E39F6E;" cx="57.464" cy="242.765" r="27.154"/>
							</g>
						</g>
						<path style="fill:#F8C298;" d="M148.909,333.71L148.909,333.71c-36.911,0-68.044-27.487-72.619-64.113L62.781,161.456h172.255
							l-13.508,108.142C216.953,306.224,185.82,333.71,148.909,333.71z"/>
					</g>
				</g>
				<path id="XMLID_1271_" style="fill:#455E6D;" d="M47.477,168.93c0,0,18.213,18.065,67.253,19.378
					c3.107,0.083,5.68-2.408,5.68-5.517v-7.279c0,0,17.822,11.696,55.589,12.789c3.115,0.09,5.699-2.4,5.699-5.516v-4.129
					c0,0,14.693,8.969,58.731,9.682c3.085,0.05,5.622-2.431,5.622-5.516v-30.599H47.477V168.93z"/>
			</g>
		</g>
		<g id="XMLID_1272_">
			<path id="XMLID_1273_" style="fill:#EB5777;" d="M476.855,7.5H324.778c-6.865,0-12.43,5.565-12.43,12.43v99.517
				c0,6.865,5.565,12.43,12.43,12.43h26.734l11.365,14.692c4.976,6.433,14.688,6.433,19.664,0l11.365-14.692h82.949
				c6.865,0,12.43-5.565,12.43-12.43V19.93C489.285,13.065,483.72,7.5,476.855,7.5z"/>
		</g>
	</g>
	<g id="XMLID_1274_">
		<path id="XMLID_1275_" d="M305.509,257.458c-0.112-4.14-3.554-7.403-7.702-7.292c-4.141,0.113-7.405,3.562-7.292,7.703
			l0.109,3.993c0.111,4.071,3.446,7.294,7.493,7.294c0.069,0,0.14-0.001,0.209-0.003c4.141-0.113,7.405-3.562,7.292-7.703
			L305.509,257.458z"/>
		<path id="XMLID_1276_" d="M371.866,250.164c-0.069,0-0.139,0.001-0.207,0.003c-4.141,0.112-7.406,3.56-7.294,7.701l0.108,3.993
			c0.11,4.071,3.445,7.296,7.493,7.296c0.069,0,0.138-0.001,0.207-0.003c4.141-0.112,7.406-3.56,7.294-7.701l-0.108-3.993
			C379.249,253.389,375.914,250.164,371.866,250.164z"/>
		<path id="XMLID_1277_" d="M361.837,279.491c-3.353-2.428-8.043-1.679-10.473,1.676c-3.798,5.245-9.919,8.375-16.373,8.375
			s-12.575-3.131-16.373-8.375c-2.43-3.354-7.118-4.104-10.473-1.676c-3.355,2.43-4.105,7.119-1.676,10.474
			c6.609,9.128,17.271,14.578,28.521,14.578s21.912-5.45,28.521-14.578C365.942,286.609,365.192,281.92,361.837,279.491z"/>
		<path id="XMLID_1278_" d="M34.294,377.555c-3.592-2.065-8.176-0.828-10.241,2.763c-5.781,10.055-8.838,21.532-8.838,33.19V504.5
			c0,4.142,3.357,7.5,7.5,7.5s7.5-3.358,7.5-7.5v-90.992c0-9.038,2.366-17.93,6.842-25.713
			C39.121,384.205,37.884,379.62,34.294,377.555z"/>
		<path id="XMLID_1279_" d="M108.841,229.409c-4.141,0.113-7.406,3.561-7.293,7.701l0.117,4.304c0.11,4.071,3.445,7.296,7.493,7.296
			c0.069,0,0.139-0.001,0.208-0.003c4.141-0.113,7.406-3.561,7.293-7.701l-0.117-4.304
			C116.43,232.561,112.974,229.299,108.841,229.409z"/>
		<path id="XMLID_1280_" d="M188.77,248.71c0.069,0,0.14-0.001,0.21-0.003c4.141-0.114,7.405-3.563,7.291-7.703l-0.118-4.304
			c-0.113-4.14-3.538-7.399-7.703-7.291c-4.141,0.114-7.405,3.563-7.291,7.703l0.118,4.304
			C181.388,245.486,184.723,248.71,188.77,248.71z"/>
		<path id="XMLID_1281_" d="M179.182,271.382c2.43-3.355,1.68-8.044-1.676-10.474c-3.354-2.429-8.043-1.679-10.473,1.676
			c-4.204,5.805-10.979,9.271-18.124,9.271s-13.92-3.466-18.124-9.271c-2.429-3.354-7.117-4.105-10.473-1.676
			c-3.355,2.43-4.105,7.119-1.676,10.474c7.016,9.689,18.333,15.473,30.272,15.473S172.166,281.071,179.182,271.382z"/>
		<path id="XMLID_1282_" d="M70.912,423.921c-4.143,0-7.5,3.358-7.5,7.5V504.5c0,4.142,3.357,7.5,7.5,7.5s7.5-3.358,7.5-7.5v-73.079
			C78.412,427.279,75.055,423.921,70.912,423.921z"/>
		<path id="XMLID_1283_" d="M224.07,423.921c-4.143,0-7.5,3.358-7.5,7.5V504.5c0,4.142,3.357,7.5,7.5,7.5s7.5-3.358,7.5-7.5v-73.079
			C231.57,427.279,228.213,423.921,224.07,423.921z"/>
		<path id="XMLID_1284_" d="M476.854,0H324.778c-10.99,0-19.931,8.94-19.931,19.93v31.739c0,4.142,3.357,7.5,7.5,7.5
			s7.5-3.358,7.5-7.5V19.93c0-2.718,2.212-4.93,4.931-4.93h152.076c2.719,0,4.931,2.212,4.931,4.93v99.518
			c0,2.718-2.212,4.93-4.931,4.93h-82.948c-2.321,0-4.512,1.075-5.933,2.911l-11.364,14.692c-1.288,1.665-2.997,1.914-3.9,1.914
			s-2.612-0.249-3.899-1.913l-11.365-14.692c-1.421-1.836-3.611-2.911-5.933-2.911h-26.733c-2.719,0-4.931-2.212-4.931-4.93V84.331
			c0-4.142-3.357-7.5-7.5-7.5s-7.5,3.358-7.5,7.5v22.775c-16.516,4.487-31.75,12.641-44.709,23.865
			c-4.307-9.441-9.844-18.403-16.573-26.651c-23.298-28.56-57.799-44.939-94.656-44.939S77.55,75.76,54.252,104.319
			c-23.299,28.559-32.416,65.647-25.015,101.753l2.719,13.263c-5.675,6.173-9.147,14.402-9.147,23.429
			c0,19.108,15.546,34.654,34.654,34.654c4.204,0,8.285-0.767,12.126-2.203c5.275,28.524,25.401,51.448,51.651,61.074v10.551H81.883
			c-11.098,0-22.088,2.784-31.783,8.052c-3.64,1.977-4.986,6.531-3.009,10.17c1.359,2.502,3.936,3.921,6.597,3.921
			c1.209,0,2.437-0.293,3.574-0.911c7.503-4.077,16.017-6.232,24.621-6.232h15.502V504.5c0,4.142,3.357,7.5,7.5,7.5
			s7.5-3.358,7.5-7.5V361.84h8.856v5.647c0,15.256,12.412,27.667,27.668,27.667s27.667-12.412,27.667-27.667v-5.647h8.856V504.5
			c0,4.142,3.357,7.5,7.5,7.5s7.5-3.358,7.5-7.5V361.84H213.1c28.49,0,51.668,23.178,51.668,51.668V504.5c0,4.142,3.357,7.5,7.5,7.5
			s7.5-3.358,7.5-7.5v-47.788c13.117-1.163,33.244-0.098,50.768,12.846c1.324,0.979,2.89,1.468,4.456,1.468
			c1.565,0,3.132-0.489,4.456-1.467c21.871-16.153,48.057-13.715,59.082-11.7V504.5c0,4.142,3.357,7.5,7.5,7.5s7.5-3.358,7.5-7.5
			v-66.396c0-4.142-3.357-7.5-7.5-7.5s-7.5,3.358-7.5,7.5v4.503c-4.221-0.668-9.6-1.239-15.726-1.275V377.71
			c29.462,9.596,50.82,37.309,50.82,69.931V504.5c0,4.142,3.357,7.5,7.5,7.5s7.5-3.358,7.5-7.5v-56.859
			c0-22.732-8.614-43.488-22.746-59.182c5.354-6.649,8.686-14.715,9.543-23.357l2.086-21.031c0.409-4.122-2.601-7.795-6.723-8.204
			c-4.131-0.409-7.795,2.601-8.203,6.723l-2.086,21.031c-0.528,5.324-2.48,10.316-5.607,14.529
			c-14.813-11.708-33.444-18.783-53.689-19.035v-8.878c24.16-8.998,42.698-30.076,47.78-56.305
			c3.465,1.217,7.134,1.857,10.839,1.857c2.578,0,5.083-0.309,7.491-0.876l-1.49,15.017c-0.408,4.122,2.602,7.795,6.724,8.204
			c0.252,0.025,0.501,0.037,0.749,0.037c3.809,0,7.07-2.89,7.454-6.76l2.539-25.586c5.703-5.887,9.223-13.9,9.223-22.724
			c0-6.512-1.921-12.579-5.216-17.681l1.637-16.518c3.3-33.271-7.877-65.613-30.306-89.522h58.23c10.99,0,19.931-8.94,19.931-19.93
			V19.93C496.785,8.94,487.845,0,476.854,0z M260.008,242.765c0,10.837-8.816,19.654-19.654,19.654
			c-3.581,0-7.003-0.957-10.025-2.76l4.465-35.749c1.788-0.527,3.646-0.798,5.56-0.798
			C251.191,223.111,260.008,231.928,260.008,242.765z M240.936,277.404c6.276-0.104,12.151-1.879,17.197-4.908l0.748,5.987
			c-2.644,1.506-5.613,2.305-8.718,2.305c-3.31,0-6.449-0.936-9.146-2.567L240.936,277.404z M65.874,113.801
			c20.438-25.052,50.703-39.421,83.035-39.421c32.331,0,62.596,14.368,83.033,39.421c20.438,25.053,28.436,57.586,21.942,89.259
			l-1.479,7.216c-3.756-1.398-7.815-2.165-12.052-2.165c-1.208,0-2.413,0.075-3.612,0.201l1.563-12.514
			c0.663,0.015,1.327,0.029,2.003,0.04c0.072,0.001,0.145,0.002,0.217,0.002c3.442,0,6.681-1.325,9.141-3.745
			c2.506-2.466,3.886-5.759,3.886-9.272v-13.892c0-4.142-3.357-7.5-7.5-7.5s-7.5,3.358-7.5,7.5v11.871
			c-37.906-0.854-52.071-8.083-52.994-8.578c-2.295-1.473-5.122-1.522-7.525-0.221c-2.42,1.311-3.833,3.902-3.833,6.655v2.079
			c-33.391-1.342-49.551-11.415-49.673-11.493c-2.305-1.512-5.255-1.639-7.678-0.329c-2.426,1.309-3.938,3.843-3.938,6.6v5.234
			c-27.199-1.005-43.92-7.295-53.219-12.463c-3.623-2.012-8.188-0.708-10.199,2.913s-0.708,8.187,2.912,10.199
			c1.681,0.934,3.568,1.9,5.668,2.869l3.002,24.034c-1.193-0.123-2.397-0.188-3.61-0.188c-4.237,0-8.296,0.767-12.052,2.165
			l-1.479-7.216C37.439,171.387,45.437,138.854,65.874,113.801z M37.81,242.765c0-10.837,8.816-19.654,19.654-19.654
			c1.907,0,3.768,0.278,5.561,0.807l4.465,35.742c-3.024,1.803-6.448,2.759-10.026,2.759
			C46.626,262.418,37.81,253.602,37.81,242.765z M83.732,268.668l-9.82-78.613c10.527,2.987,23.909,5.302,40.599,5.75
			c3.544,0.082,6.919-1.217,9.466-3.696c1.492-1.453,2.59-3.196,3.24-5.105c9.634,3.707,25.709,8.133,48.563,8.794
			c3.484,0.1,6.958-1.24,9.472-3.683c0.937-0.91,1.718-1.934,2.332-3.041c7.133,2.225,18.562,4.767,35.69,6.022l-2.818,22.566
			c-0.008,0.061-0.016,0.122-0.023,0.183l-6.348,50.822c-4.098,32.805-32.117,57.542-65.177,57.542S87.829,301.473,83.732,268.668z
			 M148.909,380.155c-6.985,0-12.668-5.683-12.668-12.667v-27.296c4.137,0.658,8.365,1.019,12.668,1.019
			c4.303,0,8.531-0.361,12.667-1.019v27.296C161.576,374.472,155.894,380.155,148.909,380.155z M176.576,346.84v-10.551
			c23.207-8.51,41.638-27.407,49.243-51.388c0.287,0.32,0.58,0.634,0.879,0.942l6.353,64.05c-6.303-1.981-13.005-3.053-19.953-3.053
			H176.576z M248.859,357.286l-6.186-62.375c2.418,0.571,4.927,0.878,7.49,0.878c3.751,0,7.396-0.636,10.841-1.847
			c5.086,26.225,23.623,47.299,47.779,56.295v8.885c-15.617,0.193-30.69,4.427-44,12.332
			C260.275,365.923,254.894,361.138,248.859,357.286z M279.768,441.663v-28.155c0-10.562-2.479-20.552-6.871-29.436
			c4.539-2.65,9.325-4.779,14.282-6.387v63.678C284.561,441.377,282.08,441.488,279.768,441.663z M367.804,374.508v67.872
			c-10.47,1.554-21.874,5.061-32.813,12.049c-10.919-6.969-22.334-10.475-32.812-12.025V374.51c2.185-0.227,4.388-0.355,6.604-0.388
			v4.675c0,14.452,11.757,26.208,26.208,26.208c14.452,0,26.209-11.757,26.209-26.208v-4.667
			C363.425,374.163,365.63,374.281,367.804,374.508z M346.2,378.797c0,6.18-5.028,11.208-11.209,11.208
			c-6.18,0-11.208-5.028-11.208-11.208v-24.681c3.665,0.551,7.405,0.849,11.208,0.849c3.803,0,7.544-0.298,11.209-0.849V378.797z
			 M334.991,339.964c-30.394,0-56.154-22.744-59.922-52.903l-3.624-29.013c2.277-4.613,3.563-9.8,3.563-15.283
			c0-7.511-2.41-14.466-6.486-20.149c18.222,1.218,41.027-1.417,61.385-16.054c7.641,14.148,26.855,39.653,68.955,48.896
			l-3.948,31.603C391.146,317.221,365.386,339.964,334.991,339.964z M411.101,278.49l2.698-21.597
			c2.16-0.495,4.214-1.435,6.043-2.807c2.649-1.989,4.566-4.678,5.583-7.75c7.012,2.351,12.084,8.97,12.084,16.764
			c0,9.754-7.936,17.689-17.689,17.689C416.708,280.789,413.742,279.996,411.101,278.49z M434.003,227.42l-0.591,5.962
			c-1.82-0.836-3.727-1.512-5.707-2.004l2.114-15.909c0.546-4.106-2.341-7.877-6.446-8.422c-4.101-0.54-7.877,2.34-8.423,6.447
			l-3.708,27.909c-0.038,0.283-0.174,0.513-0.403,0.686c-0.161,0.121-0.428,0.251-0.785,0.198
			c-56.102-8.545-69.623-48.275-70.161-49.929c-0.77-2.445-2.733-4.328-5.209-4.993c-2.475-0.666-5.119-0.02-7.01,1.711
			c-18.772,17.188-41.711,19.864-59.397,18.481l0.304-1.484c4.152-20.256,3.104-40.821-2.729-60.015
			c11.17-10.81,24.589-18.798,39.279-23.405c1.54,9.468,9.752,16.726,19.649,16.726h23.053l9.114,11.782
			c3.803,4.916,9.549,7.735,15.764,7.735s11.961-2.819,15.765-7.735l8.693-11.238C423.585,161.107,437.347,193.714,434.003,227.42z"
			/>
		<path id="XMLID_1300_" d="M382.199,46.437c-4.143,0-7.5,3.358-7.5,7.5v6.795h-6.794c-4.143,0-7.5,3.358-7.5,7.5s3.357,7.5,7.5,7.5
			h6.794v6.795c0,4.142,3.357,7.5,7.5,7.5s7.5-3.358,7.5-7.5v-6.795h6.795c4.143,0,7.5-3.358,7.5-7.5s-3.357-7.5-7.5-7.5h-6.795
			v-6.795C389.699,49.795,386.342,46.437,382.199,46.437z"/>
		<path id="XMLID_1301_" d="M436.223,37.58c-2.244-1.36-5.033-1.45-7.356-0.236l-9.53,4.972c-3.673,1.916-5.097,6.446-3.181,10.118
			c1.672,3.205,5.334,4.697,8.68,3.753v28.785h-1.605c-4.143,0-7.5,3.358-7.5,7.5s3.357,7.5,7.5,7.5h18.211
			c4.143,0,7.5-3.358,7.5-7.5s-3.357-7.5-7.5-7.5h-1.605V43.993C439.835,41.371,438.466,38.939,436.223,37.58z"/>
	</g>
</g>
<g>
</g>
<g>
</g>
<g>
</g>
<g>
</g>
<g>
</g>
<g>
</g>
<g>
</g>
<g>
</g>
<g>
</g>
<g>
</g>
<g>
</g>
<g>
</g>
<g>
</g>
<g>
</g>
<g>
</g>
</svg>
