<?xml version="1.0" encoding="iso-8859-1"?>
<!-- Generator: Adobe Illustrator 21.0.0, SVG Export Plug-In . SVG Version: 6.00 Build 0)  -->
<svg version="1.1" id="Capa_1" xmlns="http://www.w3.org/2000/svg" xmlns:xlink="http://www.w3.org/1999/xlink" x="0px" y="0px"
	 viewBox="0 0 512 512" style="enable-background:new 0 0 512 512;" xml:space="preserve">
<g id="XMLID_487_">
	<g id="XMLID_488_">
		<path style="fill:#3DB4A0;" d="M222.48,245.394l-21.012,126.704l-31.479,22.532l-9.717,6.953l-27.083,19.378
			c-7.628,5.466-18.051-1.032-16.518-10.279l16.856-101.641L222.48,245.394z"/>
		<polygon style="fill:#05A592;" points="222.48,245.394 201.469,372.098 169.989,394.63 160.272,401.583 129.973,330.468 
			133.527,309.041 		"/>
		<g id="XMLID_489_">
			<path style="fill:#74E2CD;" d="M510.106,51.764l-289.493,420.43c-4.708,6.83-15.113,5.79-18.368-1.854l-4.152-9.756
				l-64.562-151.541l-39.6-17.534l-17.101-7.562l-23.19-10.271l-17.091-7.572L3.501,251.476c-6.181-5.542-3.801-15.721,4.183-17.977
				L498.527,35.693l0.062-0.02c4.739-1.339,9.014,0.659,11.404,3.997C512.383,43.018,512.898,47.715,510.106,51.764z"/>
			<path style="fill:#4FCEB7;" d="M510.106,51.764l-289.493,420.43c-4.708,6.83-15.113,5.79-18.368-1.854l-4.152-9.756
				c3.987,0.968,8.499-0.381,11.167-4.265L498.527,35.693l0.062-0.02c4.739-1.339,9.014,0.659,11.404,3.997
				C512.383,43.018,512.898,47.715,510.106,51.764z"/>
			<path style="fill:#4FCEB7;" d="M510.106,51.764l-289.493,420.43c-0.402,0.577-0.834,1.092-1.308,1.556
				c-0.474,0.464-0.979,0.876-1.504,1.236c-0.35,0.237-0.721,0.443-1.092,0.639c-0.371,0.185-0.752,0.35-1.143,0.494
				c-0.381,0.134-0.783,0.258-1.174,0.35c-3.482,0.814-7.283-0.165-9.9-2.781c-0.361-0.371-0.701-0.762-1.02-1.195
				c-0.165-0.216-0.309-0.443-0.453-0.67c-0.278-0.464-0.536-0.958-0.762-1.483l-4.162-9.756l-17.637-41.383l-6.191-14.525
				l-4.275-10.044l-10.807-25.363l-6.047-14.206l-19.604-46.018l88.946-63.645L482.044,59.665l22.901-16.39l5.048-3.606
				C512.383,43.018,512.898,47.715,510.106,51.764z"/>
			<path style="fill:#3DB4A0;" d="M510.106,51.764l-289.493,420.43c-0.402,0.577-0.834,1.092-1.308,1.556
				c-0.474,0.474-0.979,0.876-1.504,1.236c-0.35,0.237-0.721,0.443-1.092,0.639c-0.371,0.185-0.752,0.35-1.143,0.494
				c-0.381,0.134-0.783,0.258-1.174,0.35c-3.482,0.814-7.283-0.165-9.9-2.781c-0.361-0.371-0.711-0.762-1.02-1.195
				c-0.165-0.216-0.309-0.443-0.453-0.67c-0.288-0.464-0.546-0.958-0.773-1.483l-4.152-9.756c3.987,0.968,8.499-0.381,11.167-4.265
				L482.044,59.665l22.901-16.39l5.048-3.606C512.383,43.018,512.898,47.715,510.106,51.764z"/>
		</g>
	</g>
	<path style="fill:#4FCEB7;" d="M72.246,261.984L53.64,273.676l-17.091-7.572l27.465-17.204c3.616-2.266,8.386-1.185,10.652,2.431
		C76.943,254.948,75.851,259.718,72.246,261.984z"/>
	<path style="fill:#4FCEB7;" d="M115.071,278.23l-21.139,13.279l-17.101-7.562l30.02-18.801c3.616-2.277,8.386-1.185,10.652,2.431
		C119.779,271.184,118.687,275.953,115.071,278.23z"/>
	<path style="fill:#3DB4A0;" d="M187.688,349.313l-28.505,19.955l-6.047-14.206c0.134-0.113,0.268-0.216,0.412-0.319l25.147-17.997
		c3.472-2.483,8.303-1.679,10.786,1.793C191.964,341.999,191.16,346.83,187.688,349.313z"/>
	<path style="fill:#3DB4A0;" d="M209.796,398.309l-29.34,20.892l-6.191-14.525l26.538-18.935c3.472-2.483,8.303-1.679,10.786,1.793
		C214.072,391.005,213.268,395.826,209.796,398.309z"/>
</g>
<g>
</g>
<g>
</g>
<g>
</g>
<g>
</g>
<g>
</g>
<g>
</g>
<g>
</g>
<g>
</g>
<g>
</g>
<g>
</g>
<g>
</g>
<g>
</g>
<g>
</g>
<g>
</g>
<g>
</g>
</svg>
